<svg width="157" height="157" viewBox="0 0 157 157" fill="none" xmlns="http://www.w3.org/2000/svg">
<circle cx="78.5" cy="78.5" r="78.5" fill="url(#paint0_linear)"/>
<path d="M121.039 59.461C120.926 64.0684 120.181 68.6385 118.823 73.0428C116.475 80.1543 112.603 85.642 110.496 87.4324C110.288 87.6073 109.264 88.4733 107.94 89.7474C107.94 89.7474 106.699 90.9549 105.541 92.2456C96.5916 102.127 91.6428 114.988 91.6597 128.32C91.6597 131.805 90.2753 135.147 87.811 137.611C85.3467 140.076 82.0043 141.46 78.5193 141.46C75.0342 141.46 71.6918 140.076 69.2275 137.611C66.7632 135.147 65.3788 131.805 65.3788 128.32C65.3832 122.895 64.5662 117.502 62.9555 112.323C60.6049 104.893 56.6988 98.0485 51.4971 92.2456C49.1155 89.7474 48.7824 89.9972 46.5424 87.4407C42.8544 83.2334 40.0254 78.345 38.2151 73.0511C36.8432 68.6502 36.0975 64.0781 36 59.4693C36 48.2057 40.4744 37.4035 48.439 29.439C56.4035 21.4744 67.2057 17 78.4693 17C89.7328 17 100.535 21.4744 108.5 29.439C116.464 37.4035 120.939 48.2057 120.939 59.4693L121.039 59.461Z" stroke="white" stroke-width="3" stroke-linecap="round" stroke-linejoin="round"/>
<path d="M95.6485 106.843C93.4081 109.097 90.7443 110.885 87.8104 112.105C84.8764 113.326 81.7302 113.954 78.5525 113.954C75.3749 113.954 72.2286 113.326 69.2947 112.105C66.3607 110.885 63.6969 109.097 61.4565 106.843" stroke="white" stroke-width="3" stroke-linecap="round" stroke-linejoin="round"/>
<path d="M91.6848 119.717C87.7737 122.252 83.2129 123.6 78.5526 123.6C73.8923 123.6 69.3315 122.252 65.4204 119.717" stroke="white" stroke-width="3" stroke-linecap="round" stroke-linejoin="round"/>
<path d="M91.5598 128.103C87.7433 130.543 83.3176 131.86 78.7882 131.904C74.2588 131.948 69.8083 130.718 65.9449 128.353" stroke="white" stroke-width="3" stroke-linecap="round" stroke-linejoin="round"/>
<path d="M78.5 114C80.3439 114 82.1843 113.895 84 113.687V91H73V113.687C74.8159 113.894 76.6561 113.999 78.5 114V114Z" stroke="white" stroke-width="3" stroke-linecap="round" stroke-linejoin="round"/>
<path d="M83.7744 86H73.2256C71.9964 86 71 87.1193 71 88.5C71 89.8807 71.9964 91 73.2256 91H83.7744C85.0036 91 86 89.8807 86 88.5C86 87.1193 85.0036 86 83.7744 86Z" stroke="white" stroke-width="3" stroke-linecap="round" stroke-linejoin="round"/>
<path d="M81.1325 33V63.7452C82.2998 64.3276 83.2359 65.2862 83.789 66.4657C84.3421 67.6452 84.4799 68.9765 84.18 70.2439C83.8801 71.5113 83.1602 72.6406 82.1368 73.4487C81.1134 74.2569 79.8466 74.6966 78.5415 74.6966C77.2364 74.6966 75.9695 74.2569 74.9461 73.4487C73.9227 72.6406 73.2028 71.5113 72.9029 70.2439C72.603 68.9765 72.7408 67.6452 73.294 66.4657C73.8471 65.2862 74.7831 64.3276 75.9504 63.7452V33C70.644 44.9065 65.3272 56.8061 60 68.6987L72.0431 85.5967L75.909 86H81.091L84.9568 85.5967L97 68.6987C91.7212 56.8061 86.432 44.9065 81.1325 33Z" stroke="white" stroke-width="3" stroke-linecap="round" stroke-linejoin="round"/>
<defs>
<linearGradient id="paint0_linear" x1="46.083" y1="-5.02942e-07" x2="204.826" y2="161.094" gradientUnits="userSpaceOnUse">
<stop stop-color="#739AA8"/>
<stop offset="1" stop-color="#739AA8" stop-opacity="0.76"/>
</linearGradient>
</defs>
</svg>
