<svg width="157" height="157" viewBox="0 0 157 157" fill="none" xmlns="http://www.w3.org/2000/svg">
<circle cx="78.5" cy="78.5" r="78.5" fill="url(#paint0_linear)"/>
<path d="M69.8028 98.4763L65.8572 94.5306L46.6684 113.719L50.614 117.665L69.8028 98.4763Z" stroke="white" stroke-width="3" stroke-linecap="round" stroke-linejoin="round"/>
<path d="M59.2949 109.812L54.5149 105.032L42.7649 116.782L40.0049 119.542L41.0149 123.312L44.7849 124.322L44.8249 124.282L59.2949 109.812Z" fill="url(#paint1_linear)" stroke="white" stroke-width="3" stroke-linecap="round" stroke-linejoin="round"/>
<path fill-rule="evenodd" clip-rule="evenodd" d="M117.725 34.3324L129.995 46.6024L96.5008 80.1055L84.2263 67.831L87.5449 64.5124L117.725 34.3324Z" fill="url(#paint2_linear)"/>
<path d="M129.995 46.6024L131.056 47.6629C131.641 47.0771 131.641 46.1275 131.056 45.5417L129.995 46.6024ZM117.725 34.3324L118.786 33.2717C118.504 32.9904 118.123 32.8324 117.725 32.8324C117.327 32.8324 116.946 32.9904 116.664 33.2717L117.725 34.3324ZM96.5008 80.1055L95.4402 81.1661C95.7215 81.4474 96.1031 81.6055 96.5009 81.6055C96.8988 81.6054 97.2803 81.4473 97.5616 81.166L96.5008 80.1055ZM84.2263 67.831L83.1657 66.7703C82.8844 67.0516 82.7263 67.4331 82.7263 67.831C82.7263 68.2288 82.8844 68.6103 83.1657 68.8916L84.2263 67.831ZM87.5449 64.5124L88.6055 65.5731L87.5449 64.5124ZM131.056 45.5417L118.786 33.2717L116.664 35.3931L128.934 47.6631L131.056 45.5417ZM97.5616 81.166L131.056 47.6629L128.934 45.5419L95.44 79.0449L97.5616 81.166ZM97.5615 79.0448L85.287 66.7703L83.1657 68.8916L95.4402 81.1661L97.5615 79.0448ZM86.4842 63.4517L83.1657 66.7703L85.287 68.8916L88.6055 65.5731L86.4842 63.4517ZM116.664 33.2717L86.4842 63.4517L88.6055 65.5731L118.786 35.3931L116.664 33.2717Z" fill="white"/>
<path d="M61.9649 38.8324C59.4965 36.3636 56.4222 34.5873 53.0505 33.6816C49.6788 32.7759 46.1282 32.7728 42.7549 33.6724L54.7549 45.7724L51.7549 56.9124L40.6149 59.9124L28.6449 47.9024C27.7373 51.3822 27.7885 55.0428 28.7933 58.4958C29.7981 61.9488 31.7189 65.0654 34.3519 67.5149C36.9849 69.9644 40.232 71.6554 43.7484 72.4085C47.2649 73.1616 50.9197 72.9487 54.3249 71.7924L91.9249 109.392L100.595 118.112C102.328 119.206 104.384 119.676 106.42 119.443C108.457 119.21 110.353 118.289 111.795 116.832C113.15 115.368 113.991 113.503 114.192 111.518C114.392 109.534 113.94 107.538 112.905 105.832C112.585 105.34 112.213 104.884 111.795 104.472C110.405 103.162 107.795 100.622 104.235 97.0824L104.315 96.9924L89.6449 82.3624L89.4749 82.1924L66.7149 59.4024C67.9299 55.873 68.1288 52.0733 67.289 48.4364C66.4492 44.7995 64.6044 41.4717 61.9649 38.8324ZM108.385 113.432C107.828 113.998 107.116 114.386 106.338 114.546C105.56 114.705 104.753 114.63 104.018 114.329C103.283 114.028 102.654 113.516 102.212 112.857C101.77 112.197 101.533 111.421 101.533 110.627C101.533 109.833 101.77 109.057 102.212 108.398C102.654 107.739 103.283 107.226 104.018 106.926C104.753 106.625 105.56 106.549 106.338 106.709C107.116 106.869 107.828 107.256 108.385 107.822C109.121 108.571 109.533 109.578 109.533 110.627C109.533 111.677 109.121 112.684 108.385 113.432Z" fill="url(#paint3_linear)" stroke="white" stroke-width="3" stroke-linecap="round" stroke-linejoin="round"/>
<defs>
<linearGradient id="paint0_linear" x1="46.083" y1="-5.02942e-07" x2="204.826" y2="161.094" gradientUnits="userSpaceOnUse">
<stop stop-color="#739AA8"/>
<stop offset="1" stop-color="#739AA8" stop-opacity="0.76"/>
</linearGradient>
<linearGradient id="paint1_linear" x1="45.6669" y1="105.032" x2="65.1711" y2="124.826" gradientUnits="userSpaceOnUse">
<stop stop-color="#739AA8"/>
<stop offset="1" stop-color="#739AA8" stop-opacity="0.76"/>
</linearGradient>
<linearGradient id="paint2_linear" x1="97.6604" y1="34.3324" x2="143.942" y2="81.2946" gradientUnits="userSpaceOnUse">
<stop stop-color="#739AA8"/>
<stop offset="1" stop-color="#739AA8" stop-opacity="0.76"/>
</linearGradient>
<linearGradient id="paint3_linear" x1="53.3128" y1="33" x2="140.778" y2="121.491" gradientUnits="userSpaceOnUse">
<stop stop-color="#739AA8"/>
<stop offset="1" stop-color="#739AA8" stop-opacity="0.76"/>
</linearGradient>
</defs>
</svg>
