<svg width="44" height="44" viewBox="0 0 44 44" fill="none" xmlns="http://www.w3.org/2000/svg">
<rect x="1.84448" y="1.5" width="40.477" height="40.477" rx="3.5" stroke="#739AA8" stroke-width="3"/>
<path d="M25.8673 34.7109V25.5588H28.9869C29.2536 24.2308 29.5157 22.9353 29.7839 21.6011H25.8548C25.8953 20.7318 25.7456 19.8842 26.0108 19.0567C26.2588 18.2818 26.9685 17.7875 27.8576 17.772C28.4113 17.7627 28.9666 17.7627 29.5203 17.772C29.7278 17.772 29.7964 17.7069 29.7949 17.4993C29.7876 16.3629 29.7876 15.2239 29.7949 14.0824C29.7949 13.8809 29.7387 13.8066 29.5235 13.8081C28.4987 13.819 27.4739 13.7849 26.4506 13.8205C24.412 13.8887 22.8631 15.0927 22.2064 17.1537C21.9412 17.9797 21.9131 18.8289 21.8866 19.6796C21.8663 20.2995 21.8866 20.9301 21.8866 21.5856H18.7857C18.7857 21.7019 18.7701 21.7917 18.7701 21.8801C18.7701 23.0004 18.7779 24.1208 18.7701 25.2412C18.7701 25.4984 18.8559 25.5511 19.0946 25.5511C19.94 25.5402 20.7854 25.5511 21.6308 25.5511C21.8242 25.5511 21.8929 25.6053 21.8913 25.8037C21.8913 28.748 21.8913 31.6922 21.8913 34.6365C21.8478 34.6507 21.8028 34.66 21.7572 34.6644C19.8854 34.6644 18.0136 34.683 16.1418 34.6644C14.7848 34.6374 13.4684 34.1995 12.3687 33.4092C11.5985 32.8916 10.9398 32.2269 10.431 31.4537C9.92215 30.6806 9.57339 29.8145 9.40502 28.906C9.31736 28.4307 9.27558 27.9481 9.28024 27.4649C9.26932 23.9922 9.24748 20.5195 9.28024 17.0468C9.3052 14.6185 10.3861 12.7079 12.3733 11.3024C13.5904 10.448 15.0513 10.0042 16.5412 10.0363C20.018 10.0472 23.4948 10.0255 26.9716 10.0363C29.2271 10.0503 31.063 10.9754 32.484 12.7017C33.5363 13.9691 34.0984 15.5683 34.0687 17.2111C34.0615 20.6088 34.0615 24.0072 34.0687 27.406C34.1045 29.0953 33.5295 30.7414 32.4481 32.0455C31.4034 33.3589 29.9067 34.2421 28.246 34.5249C27.4801 34.6597 26.683 34.6489 25.8673 34.7109Z" fill="#739AA8"/>
</svg>
