<svg width="44" height="44" viewBox="0 0 44 44" fill="none" xmlns="http://www.w3.org/2000/svg">
<rect x="1.5" y="1.93091" width="40.477" height="40.477" rx="3.5" stroke="#739AA8" stroke-width="3"/>
<path d="M34.8721 22.8094C34.8721 24.5651 34.8924 26.3208 34.8721 28.0781C34.841 30.1453 34.0314 31.8824 32.5044 33.2832C31.6467 34.0701 30.605 34.632 29.4736 34.9181C28.9138 35.0658 28.3372 35.1419 27.7579 35.1443C24.2264 35.1443 20.6935 35.1552 17.1621 35.1443C15.5719 35.1446 14.0299 34.6019 12.7946 33.6071C11.4436 32.5633 10.5166 31.0707 10.1835 29.403C10.0887 28.9572 10.0411 28.5027 10.0415 28.0471C10.0415 24.5573 10.0228 21.0738 10.0415 17.5779C10.0571 15.348 10.9774 13.5148 12.6932 12.086C13.622 11.3164 14.7363 10.8 15.9267 10.5876C16.3717 10.506 16.8234 10.466 17.2759 10.4682C20.7527 10.4682 24.2311 10.4589 27.7079 10.4682C29.4018 10.481 31.0373 11.0849 32.3284 12.1744C33.6195 13.2638 34.484 14.7695 34.7708 16.4281C34.8374 16.838 34.8713 17.2525 34.8721 17.6678C34.8831 19.3832 34.8721 21.0971 34.8721 22.8125V22.8094ZM22.4498 12.3634H17.3024C16.716 12.3567 16.1323 12.4446 15.5742 12.6238C14.5143 12.9671 13.5911 13.6352 12.9373 14.5322C12.2835 15.4293 11.9327 16.5091 11.9351 17.6166C11.9351 21.0754 11.9351 24.5362 11.9351 27.999C11.9324 29.3286 12.4384 30.6095 13.3507 31.5823C14.263 32.5551 15.5134 33.1471 16.8485 33.2383C17.0045 33.2491 17.1605 33.2538 17.3165 33.2538H27.644C28.4558 33.2687 29.2591 33.0863 29.9837 32.7223C31.9132 31.7228 32.9333 30.1282 32.9473 27.9665C32.9754 24.531 32.9551 21.0955 32.9551 17.6585C32.9548 17.222 32.9025 16.7872 32.7992 16.363C32.518 15.2314 31.8659 14.225 30.9455 13.5023C30.0251 12.7795 28.8889 12.3816 27.7157 12.3712C25.9656 12.3603 24.2077 12.3634 22.4498 12.3634Z" fill="#739AA8"/>
<path d="M29.1397 22.8079C29.1389 24.1266 28.7432 25.4152 28.003 26.5097C27.2627 27.6043 26.2114 28.4552 24.9828 28.9543C23.7542 29.4534 22.4039 29.5781 21.1038 29.3124C19.8037 29.0468 18.6125 28.4028 17.682 27.4626C16.7514 26.5223 16.1234 25.3282 15.8781 24.0322C15.6327 22.7363 15.781 21.3971 16.3041 20.1852C16.8272 18.9733 17.7015 17.9434 18.8156 17.2266C19.9297 16.5098 21.2333 16.1385 22.5605 16.1601C24.3144 16.1933 25.9853 16.9079 27.2152 18.1506C28.4451 19.3932 29.136 21.0652 29.1397 22.8079ZM22.4622 18.0583C21.5168 18.0559 20.5919 18.3321 19.8046 18.8521C19.0173 19.3721 18.403 20.1125 18.0394 20.9795C17.6759 21.8465 17.5794 22.8011 17.7622 23.7226C17.945 24.6441 18.3989 25.491 19.0664 26.1561C19.7339 26.8212 20.5851 27.2746 21.5121 27.459C22.4391 27.6433 23.4003 27.5503 24.2741 27.1916C25.1478 26.833 25.8949 26.2248 26.4206 25.4442C26.9463 24.6636 27.2271 23.7456 27.2274 22.8064C27.2297 22.1834 27.1081 21.5661 26.8696 20.9899C26.6311 20.4138 26.2804 19.8901 25.8376 19.4489C25.3948 19.0078 24.8687 18.6578 24.2895 18.4192C23.7102 18.1806 23.0893 18.0579 22.4622 18.0583Z" fill="#739AA8"/>
<path d="M30.0961 14.2617C30.2855 14.2617 30.4706 14.3176 30.628 14.4223C30.7853 14.5269 30.9079 14.6756 30.9801 14.8496C31.0523 15.0235 31.0708 15.2148 31.0334 15.3993C30.996 15.5837 30.9043 15.7529 30.77 15.8855C30.6356 16.0181 30.4647 16.1081 30.2788 16.1441C30.0929 16.18 29.9005 16.1603 29.7259 16.0875C29.5513 16.0146 29.4024 15.8919 29.298 15.7349C29.1937 15.5778 29.1387 15.3936 29.1399 15.2054C29.142 14.9547 29.2436 14.7149 29.4226 14.5382C29.6017 14.3615 29.8437 14.2621 30.0961 14.2617Z" fill="#739AA8"/>
</svg>
