<svg width="33" height="23" viewBox="0 0 33 23" fill="none" xmlns="http://www.w3.org/2000/svg">
<path opacity="0.6" fill-rule="evenodd" clip-rule="evenodd" d="M5 3H28C28.1104 3 28.2187 3.00894 28.3242 3.02614L18.5224 10.8906C17.6331 11.6041 16.3736 11.6255 15.4605 10.9426L4.84889 3.00562C4.89877 3.0019 4.94917 3 5 3ZM0.960692 2.05255L0.101577 3.20118L0.283205 3.33703C0.0997838 3.85728 0 4.41699 0 5V18C0 20.7614 2.23858 23 5 23H28C30.7614 23 33 20.7614 33 18V5C33 4.42019 32.9013 3.86343 32.7198 3.3456L32.9387 3.16996L32.0056 2.00699C31.938 1.91662 31.8674 1.82862 31.7939 1.74313L31.0613 0.830037L30.9217 0.942014C30.0999 0.349247 29.0907 0 28 0H5C3.91189 0 2.90496 0.347577 2.08419 0.93776L1.89842 0.798819L1.02681 1.96415C1.00445 1.99337 0.982413 2.02284 0.960692 2.05255ZM30 5.52783V18C30 19.1046 29.1046 20 28 20H5C3.89543 20 3 19.1046 3 18V5.36906L13.6637 13.3449C15.6724 14.8474 18.4433 14.8003 20.3998 13.2305L30 5.52783Z" fill="white"/>
</svg>
