<svg width="26" height="45" viewBox="0 0 26 45" fill="none" xmlns="http://www.w3.org/2000/svg">
<g opacity="0.6">
<path fill-rule="evenodd" clip-rule="evenodd" d="M13.0003 3C7.75358 3 3.50028 7.25329 3.50028 12.5C3.50028 13.6726 3.71202 14.7922 4.09804 15.8252L4.85484 17.8503H4.6044L12.5261 41.5499C12.6783 42.0052 13.3224 42.0052 13.4746 41.5499L21.3963 17.8503H21.1457L21.9025 15.8252C22.2885 14.7922 22.5003 13.6726 22.5003 12.5C22.5003 7.25329 18.247 3 13.0003 3ZM25.2794 14.8503C25.4245 14.0884 25.5003 13.3026 25.5003 12.5C25.5003 5.59644 19.9038 0 13.0003 0C6.09672 0 0.50028 5.59644 0.50028 12.5C0.50028 13.3026 0.576104 14.0884 0.721167 14.8503H0.438477L9.68087 42.501C10.7462 45.6882 15.2545 45.6882 16.3198 42.501L25.5622 14.8503H25.2794Z" fill="white"/>
<path fill-rule="evenodd" clip-rule="evenodd" d="M12.7283 10.0283C10.4667 10.0283 8.6333 11.8617 8.6333 14.1233C8.6333 16.3849 10.4667 18.2183 12.7283 18.2183C14.9899 18.2183 16.8233 16.3849 16.8233 14.1233C16.8233 11.8617 14.9899 10.0283 12.7283 10.0283ZM5.6333 14.1233C5.6333 10.2049 8.80984 7.02832 12.7283 7.02832C16.6468 7.02832 19.8233 10.2049 19.8233 14.1233C19.8233 18.0418 16.6468 21.2183 12.7283 21.2183C8.80984 21.2183 5.6333 18.0418 5.6333 14.1233Z" fill="white"/>
</g>
</svg>
