<svg width="44" height="45" viewBox="0 0 44 45" fill="none" xmlns="http://www.w3.org/2000/svg">
<rect x="1.67224" y="2.45386" width="40.477" height="40.477" rx="3.5" stroke="#739AA8" stroke-width="3"/>
<path d="M24.8868 29.1143C25.3206 29.5035 25.7269 29.8628 26.1249 30.2273C27.0472 31.0671 27.968 31.9083 28.8871 32.751C29.2115 33.045 29.4195 33.4293 29.4781 33.8433C29.5368 34.2573 29.4429 34.6774 29.2112 35.0371C28.7408 35.7827 27.7622 36.1566 26.8863 35.9343C26.4965 35.8332 26.143 35.6392 25.8622 35.3722C24.6241 34.243 23.3861 33.1137 22.148 31.984C22.0379 31.8826 21.9777 31.9032 21.8827 31.9868C21.1438 32.6621 20.4098 33.3423 19.659 34.0074C19.0399 34.5542 18.489 35.1665 17.8019 35.6425C17.025 36.1808 15.9049 36.0972 15.2032 35.4861C14.4449 34.8258 14.3047 33.8389 14.8676 33.0638C15.2006 32.6059 15.6724 32.2633 16.0898 31.8769C17.0824 30.9587 18.0857 30.0499 19.1169 29.1087C18.8211 29.0319 18.5518 28.9648 18.2838 28.8921C17.0493 28.5575 15.8789 28.0838 14.8229 27.4118C14.0898 26.945 13.8192 26.0018 14.1221 25.2829C14.4988 24.3885 15.3394 23.9525 16.2958 24.0071C16.7101 24.0309 17.0643 24.2152 17.4158 24.4047C18.5441 25.0188 19.808 25.3954 21.1155 25.5072C23.1973 25.687 25.1136 25.2461 26.8925 24.2588C28.1748 23.5464 29.9116 24.3889 29.9957 25.7597C30.0492 26.6351 29.6061 27.2481 28.7947 27.6712C27.6331 28.2774 26.4172 28.7587 25.1145 29.0489C25.0597 29.0602 25.0044 29.08 24.8868 29.1143Z" fill="#739AA8"/>
<path d="M15.0062 15.7397C15.117 11.7163 18.6486 8.82023 22.3022 9.00869C26.3341 9.21583 29.1891 12.6265 28.9902 16.362C28.7774 20.3246 25.3036 23.3744 21.3003 22.9627C17.4808 22.5671 14.8547 19.2798 15.0062 15.7397ZM24.891 16.0115C24.894 14.413 23.6103 13.1116 22.0278 13.109C20.41 13.1064 19.1098 14.3683 19.105 15.9468C19.1002 17.597 20.3714 18.8998 21.9874 18.8968C22.3678 18.8989 22.7448 18.8259 23.0969 18.6819C23.449 18.5379 23.7691 18.3258 24.0389 18.0577C24.3088 17.7896 24.5229 17.4708 24.6692 17.1196C24.8154 16.7685 24.8908 16.3919 24.891 16.0115Z" fill="#739AA8"/>
</svg>
