<svg width="37" height="41" viewBox="0 0 37 41" fill="none" xmlns="http://www.w3.org/2000/svg">
<path d="M34.4455 33.2808L28.2324 25.8372C27.8489 25.3788 27.2983 25.0908 26.7017 25.0365C26.105 24.9822 25.5112 25.166 25.0505 25.5476L22.9094 27.3203C22.637 27.5449 22.2862 27.6527 21.9341 27.62C21.5819 27.5873 21.2572 27.4168 21.0312 27.1459L16.8506 22.1346L12.67 17.1268C12.445 16.8556 12.3367 16.5068 12.3689 16.1564C12.4011 15.806 12.571 15.4825 12.8417 15.2564L15.151 13.344C15.3573 13.1736 15.5278 12.9644 15.6529 12.7283C15.7779 12.4922 15.855 12.2339 15.8798 11.9682C15.9045 11.7024 15.8764 11.4344 15.797 11.1795C15.7177 10.9245 15.5887 10.6877 15.4173 10.4824L9.06413 2.8748C8.6481 2.37987 8.05228 2.06903 7.40684 2.01018C6.7614 1.95133 6.11881 2.14926 5.61944 2.56073V2.56073C3.57267 4.26576 2.28668 6.70818 2.04243 9.35442C1.79817 12.0007 2.6155 14.6356 4.31586 16.6837L12.1304 26.0431L19.9483 35.3956C21.6605 37.4339 24.1131 38.7145 26.7703 38.9578C29.4276 39.201 32.0735 38.3871 34.1301 36.6937V36.6937C34.6219 36.2799 34.9307 35.6901 34.9897 35.0516C35.0487 34.4131 34.8532 33.777 34.4455 33.2808Z" stroke="#739AA8" stroke-width="3"/>
</svg>
