<svg width="31" height="34" viewBox="0 0 31 34" fill="none" xmlns="http://www.w3.org/2000/svg">
<path opacity="0.6" d="M28.7383 25.7191L28.7384 25.719L28.7309 25.7101L24.0241 20.0772L24.023 20.0758C23.477 19.4239 22.6948 19.0161 21.8492 18.9392C21.0039 18.8623 20.1613 19.1222 19.5065 19.6639C19.5064 19.664 19.5064 19.664 19.5063 19.6641L18.2585 20.6961L15.4018 17.2755L15.4014 17.2751L12.5548 13.8689L13.9176 12.7416C13.9179 12.7414 13.9182 12.7411 13.9185 12.7408C14.2262 12.4867 14.4812 12.1744 14.6683 11.8214C14.8557 11.4681 14.9714 11.0811 15.0085 10.6826C15.0456 10.2842 15.0034 9.8824 14.8844 9.50042L14.8844 9.50042C14.7654 9.11845 14.572 8.76403 14.3157 8.45728L14.3155 8.45702L9.50242 2.69992L9.50243 2.69991L9.49932 2.69622C8.9288 2.01823 8.11339 1.59415 7.23215 1.51389C6.35097 1.43363 5.47255 1.70336 4.78875 2.26619L4.78873 2.26618L4.78255 2.27132C2.92751 3.81495 1.76024 6.02784 1.5385 8.42749C1.31676 10.8272 2.05896 13.2156 3.60086 15.0707L3.60353 15.0739L9.52359 22.1567L9.52416 22.1574L15.4469 29.235L15.4492 29.2377C17.0015 31.0837 19.2235 32.2418 21.6288 32.4618C24.0341 32.6817 26.4302 31.946 28.2938 30.4132L28.2999 30.4082L28.306 30.403C28.9799 29.8367 29.4046 29.0279 29.4858 28.1502L27.9922 28.012L29.4858 28.1502C29.567 27.2724 29.2978 26.3992 28.7383 25.7191Z" stroke="white" stroke-width="3"/>
</svg>
