<svg width="44" height="44" viewBox="0 0 44 44" fill="none" xmlns="http://www.w3.org/2000/svg">
<rect x="1.67224" y="1.97705" width="40.477" height="40.477" rx="3.5" stroke="#739AA8" stroke-width="3"/>
<path d="M17.3279 17.0589C17.5276 16.5708 17.8676 16.3043 18.2841 16.2686C19.4321 16.1695 20.5848 16.1137 21.736 16.0842C22.0944 16.0852 22.4511 16.1337 22.7966 16.2283C23.4206 16.3833 23.6655 16.6808 23.6701 17.3038C23.6701 18.4164 23.6421 19.5306 23.6374 20.6432C23.6275 21.1225 23.6426 21.602 23.6826 22.0797C23.7169 22.4237 23.8277 22.8344 24.2036 22.8839C24.4407 22.9149 24.7916 22.7166 24.9617 22.5136C25.5166 21.8856 26.0166 21.2117 26.456 20.4991C27.0424 19.481 27.5369 18.4087 28.036 17.3425C28.2279 16.935 28.4634 16.7227 28.9392 16.7227C30.2666 16.7227 31.5909 16.6932 32.9214 16.6762C33.0196 16.6762 33.1163 16.6762 33.2131 16.6762C33.9103 16.7351 34.1349 17.0667 33.9087 17.733C33.5297 18.8425 32.8169 19.7615 32.1399 20.6912C31.594 21.4335 31.0153 22.1525 30.4631 22.8901C29.7019 23.9082 29.7861 24.37 30.708 25.2518C31.6298 26.1335 32.5002 27.0803 33.3753 28.0147C33.5608 28.2368 33.715 28.4828 33.8339 28.7461C34.1786 29.4249 33.9103 29.961 33.1522 30.0509C32.5766 30.1191 31.9933 30.1253 31.4146 30.1392C30.7361 30.1563 30.056 30.1594 29.3775 30.1547C28.4993 30.1547 27.8286 29.7007 27.2483 29.1057C26.7367 28.585 26.2579 28.0318 25.7587 27.4987C25.6336 27.3705 25.4979 27.2528 25.3532 27.1469C24.7604 26.6929 24.241 26.7952 23.979 27.491C23.8087 27.9673 23.7099 28.4659 23.6857 28.9708C23.6327 29.7952 23.3519 30.0819 22.5159 30.1129C21.084 30.1656 19.6848 30.0509 18.3371 29.507C16.6338 28.819 15.308 27.6676 14.188 26.2528C12.2726 23.837 10.8407 21.1391 9.53045 18.3684C9.40723 18.108 9.28088 17.8492 9.17326 17.5827C8.98764 17.1256 9.11087 16.8745 9.58505 16.749C9.75798 16.7024 9.9362 16.6779 10.1154 16.6762C11.1542 16.6684 12.1931 16.6762 13.235 16.6762C13.7841 16.6762 14.1709 16.8947 14.3986 17.4231C15.1146 19.1075 15.9584 20.7253 17.0909 22.1773C17.2777 22.4154 17.4947 22.6284 17.7366 22.8111C18.1157 23.0962 18.5165 22.9862 18.6475 22.5322C18.7788 22.114 18.8543 21.6806 18.8722 21.2429C18.894 20.3379 18.894 19.4298 18.8269 18.528C18.7614 17.671 18.2685 17.1457 17.3279 17.0589Z" fill="#739AA8"/>
</svg>
