<svg width="37" height="37" viewBox="0 0 37 37" fill="none" xmlns="http://www.w3.org/2000/svg">
  <path d="M0.957275 36.276L3.43528 27.475C1.84178 24.7679 1.00279 21.6877 1.00279 18.5236C1.00279 8.78109 8.9289 0.85498 18.6714 0.85498C28.4139 0.85498 36.3399 8.78109 36.3399 18.5236C36.3399 28.2661 28.4139 36.1922 18.6714 36.1922C15.6357 36.1922 12.6632 35.4152 10.0335 33.9397L0.957275 36.276ZM10.4975 30.7253L11.0384 31.0555C13.3311 32.4552 15.9706 33.195 18.6714 33.195C26.7613 33.195 33.3427 26.6135 33.3427 18.5236C33.3427 10.4338 26.7613 3.85216 18.6714 3.85216C10.5816 3.85216 3.99997 10.4338 3.99997 18.5236C3.99997 21.3424 4.80111 24.0797 6.31657 26.4396L6.68079 27.0067L5.25379 32.0751L10.4975 30.7253Z" fill="white"/>
  <path d="M13.7081 10.3002L12.5616 10.2377C12.2015 10.2181 11.8483 10.3384 11.5761 10.5749C11.0203 11.0575 10.1316 11.9906 9.85861 13.2066C9.45155 15.0197 10.0806 17.2398 11.7088 19.46C13.3369 21.6801 16.371 25.2323 21.7363 26.7494C23.4653 27.2383 24.8253 26.9087 25.8747 26.2375C26.7058 25.7059 27.2787 24.8526 27.4852 23.8879L27.6682 23.0329C27.7264 22.7612 27.5884 22.4855 27.336 22.3691L23.4613 20.5831C23.2097 20.4672 22.9115 20.5405 22.7423 20.7597L21.2212 22.7317C21.1063 22.8806 20.9096 22.9397 20.732 22.8773C19.6903 22.5112 16.2009 21.0498 14.2862 17.3617C14.2032 17.2017 14.2238 17.0076 14.3416 16.8712L15.7954 15.1894C15.9439 15.0177 15.9814 14.7762 15.8922 14.5676L14.222 10.66C14.133 10.452 13.9338 10.3126 13.7081 10.3002Z" fill="white"/>
</svg>
