<svg width="75" height="46" viewBox="0 0 75 46" fill="none" xmlns="http://www.w3.org/2000/svg">
<path d="M71.3567 23.9214L73.0429 17.6191L66.7476 19.3063L71.3567 23.9214Z" stroke="white" stroke-width="2" stroke-linecap="round" stroke-linejoin="round"/>
<path d="M10.3433 29.7C12.6164 29.7 14.4591 27.8563 14.4591 25.5819C14.4591 23.3076 12.6164 21.4639 10.3433 21.4639C8.07024 21.4639 6.22754 23.3076 6.22754 25.5819C6.22754 27.8563 8.07024 29.7 10.3433 29.7Z" stroke="white" stroke-width="2" stroke-linecap="round" stroke-linejoin="round"/>
<path d="M17.5307 40.0291V32.4489C17.528 31.7183 17.2365 31.0185 16.7199 30.5022C16.2033 29.9859 15.5035 29.6951 14.7733 29.6934H5.91659C5.18673 29.6951 4.48728 29.986 3.97119 30.5024C3.45511 31.0188 3.16438 31.7186 3.1626 32.4489V40.6478" stroke="white" stroke-width="2" stroke-linecap="round" stroke-linejoin="round"/>
<path d="M34.5686 12.2641C34.5701 11.2929 34.2856 10.3428 33.7506 9.5324C33.2157 8.72199 32.454 8.08721 31.5607 7.70732C30.6674 7.32743 29.682 7.21926 28.7276 7.39632C27.7732 7.57337 26.8921 8.02781 26.1943 8.70289C25.4965 9.37796 25.0129 10.2438 24.8039 11.1922C24.5949 12.1406 24.6697 13.1296 25.0191 14.0357C25.3685 14.9418 25.9769 15.7249 26.7684 16.2871C27.5598 16.8493 28.4993 17.1658 29.4695 17.197H29.7871C31.0684 17.1575 32.2841 16.6205 33.1766 15.6997C34.069 14.779 34.5683 13.5468 34.5686 12.2641V12.2641Z" stroke="white" stroke-width="2" stroke-linecap="round" stroke-linejoin="round"/>
<path d="M38.2481 31.0763V20.5073C38.2455 19.6308 37.8965 18.791 37.2774 18.1709C36.6583 17.5508 35.8193 17.2008 34.9433 17.1973H29.7868C29.7361 17.1973 29.682 17.1973 29.628 17.1973C29.5739 17.1973 29.5232 17.1973 29.4692 17.1973H24.316C23.4394 17.1999 22.5995 17.5495 21.9797 18.1697C21.3599 18.7899 21.0105 19.6302 21.0078 20.5073V36.8173" stroke="white" stroke-width="2" stroke-linecap="round" stroke-linejoin="round"/>
<path d="M53.5422 13.0791C56.7241 13.0791 59.3036 10.4982 59.3036 7.31443C59.3036 4.13072 56.7241 1.5498 53.5422 1.5498C50.3602 1.5498 47.7808 4.13072 47.7808 7.31443C47.7808 10.4982 50.3602 13.0791 53.5422 13.0791Z" stroke="white" stroke-width="2" stroke-linecap="round" stroke-linejoin="round"/>
<path d="M62.9429 21.7547V17.3594C62.9429 14.9927 61.3209 13.0723 59.3373 13.0723H47.7503C45.7701 13.0689 44.165 14.9927 44.165 17.3594V30.8158" stroke="white" stroke-width="2" stroke-linecap="round" stroke-linejoin="round"/>
<path d="M1.25 44.7452H17.3042L27.2355 34.8084H55.8736L68.9745 21.7002" stroke="white" stroke-width="2" stroke-linecap="round" stroke-linejoin="round"/>
</svg>
