<svg width="72" height="63" viewBox="0 0 72 63" fill="none" xmlns="http://www.w3.org/2000/svg">
<path d="M60.9502 52.1465L69.4002 61.8816" stroke="white" stroke-width="2" stroke-linecap="round" stroke-linejoin="round"/>
<path d="M41.7751 59.2851C57.7499 59.2851 70.7001 46.3547 70.7001 30.4043C70.7001 14.4538 57.7499 1.52344 41.7751 1.52344C25.8003 1.52344 12.8501 14.4538 12.8501 30.4043C12.8501 46.3547 25.8003 59.2851 41.7751 59.2851Z" stroke="white" stroke-width="2" stroke-linecap="round" stroke-linejoin="round"/>
<path d="M1.80029 43.238L3.63251 50.1987C4.62714 47.819 5.62468 45.4393 6.62513 43.0596C7.20969 45.3887 7.78553 47.7178 8.3701 50.0559C9.24258 47.9231 10.054 45.7903 10.9003 43.6485" stroke="white" stroke-width="2" stroke-linecap="round" stroke-linejoin="round"/>
<path d="M14.8003 43.0596C15.4486 45.4393 16.0887 47.819 16.737 50.1987L18.0503 48.1118" stroke="white" stroke-width="2" stroke-linecap="round" stroke-linejoin="round"/>
<path d="M19.3501 35.6346C20.4372 39.8439 21.5243 44.0499 22.6114 48.2526L27.9652 35.2725C29.0021 39.5013 30.042 43.7432 31.0852 47.9981L35.6001 36.3786" stroke="white" stroke-width="2" stroke-linecap="round" stroke-linejoin="round"/>
<path d="M40.1504 35.6346L43.5539 48.2526L49.1055 35.2725C50.1845 39.5013 51.2667 43.7432 52.3521 47.9981C53.9215 44.1217 55.4876 40.2485 57.0504 36.3786" stroke="white" stroke-width="2" stroke-linecap="round" stroke-linejoin="round"/>
</svg>
