<svg width="81" height="76" viewBox="0 0 81 76" fill="none" xmlns="http://www.w3.org/2000/svg">
<g clip-path="url(#clip0)">
<path d="M14.6571 74.2821L28.901 49.6345C29.0455 49.3861 29.2525 49.1798 29.5017 49.036C29.7508 48.8922 30.0333 48.816 30.3211 48.815H62.4764C62.7647 48.8165 63.0482 48.7414 63.2978 48.5974C63.5474 48.4533 63.754 48.2456 63.8965 47.9955L65.3166 45.5307L67.2121 42.2587L69.1014 38.9868L70.9969 35.7148L79.7457 20.5873C79.8934 20.3385 79.9721 20.055 79.974 19.7658C79.9758 19.4767 79.9007 19.1922 79.7562 18.9415C79.6118 18.6908 79.4032 18.4829 79.1519 18.339C78.9005 18.1951 78.6154 18.1204 78.3257 18.1226H77.7082C77.4108 18.1151 77.117 18.1893 76.859 18.3371C76.6009 18.4848 76.3885 18.7005 76.245 18.9606L66.5452 35.721L64.6498 38.9929L63.2297 41.4577C63.0867 41.7061 62.8809 41.9125 62.6327 42.0564C62.3845 42.2002 62.1028 42.2764 61.8158 42.2772H39.3169C39.0292 42.2762 38.7466 42.2 38.4975 42.0563C38.2484 41.9125 38.0413 41.7061 37.8969 41.4577V41.4577C37.7513 41.2085 37.6741 40.9255 37.6733 40.637C37.6724 40.3486 37.7478 40.065 37.8918 39.815C38.0359 39.5649 38.2435 39.3573 38.4938 39.2129C38.744 39.0686 39.0279 38.9927 39.3169 38.9929H54.8575C55.1455 38.9932 55.4285 38.9175 55.6778 38.7736C55.9272 38.6297 56.1341 38.4227 56.2775 38.1734V38.1734C56.4251 37.9246 56.5039 37.6411 56.5057 37.3519C56.5076 37.0627 56.4324 36.7782 56.288 36.5276C56.1436 36.2769 55.935 36.069 55.6837 35.9251C55.4323 35.7812 55.1472 35.7065 54.8575 35.7086H19.1519C18.8636 35.7071 18.5802 35.7823 18.3306 35.9263C18.081 36.0703 17.8744 36.2781 17.7319 36.5282L17.1824 37.471L1.87646 63.9425" stroke="white" stroke-width="3" stroke-linecap="round" stroke-linejoin="round"/>
<path d="M54.0502 13.1252C54.0502 17.5021 50.5021 21.0502 46.1252 21.0502C41.7483 21.0502 38.2002 17.5021 38.2002 13.1252C38.2002 8.74834 41.7483 5.2002 46.1252 5.2002C50.5021 5.2002 54.0502 8.74834 54.0502 13.1252Z" stroke="white" stroke-width="3"/>
<path d="M47.5502 18.9753C47.5502 23.3522 44.0021 26.9003 39.6252 26.9003C35.2483 26.9003 31.7002 23.3522 31.7002 18.9753C31.7002 14.5984 35.2483 11.0503 39.6252 11.0503C44.0021 11.0503 47.5502 14.5984 47.5502 18.9753Z" fill="#799DAA" stroke="white" stroke-width="3"/>
<path d="M39.6005 13.4561H39.6685C39.8388 13.4355 40.0113 13.4687 40.1609 13.5509C40.3106 13.6331 40.4296 13.76 40.5007 13.9131C40.5498 14.0634 40.5831 14.2183 40.6002 14.3752L40.5479 23.653C40.5306 23.7908 40.4851 23.9237 40.414 24.0437C40.3429 24.1637 40.2478 24.2684 40.1344 24.3513C39.9903 24.4462 39.8211 24.4979 39.6476 24.5002H39.5272C39.4027 24.494 39.2809 24.4628 39.1692 24.4085C39.0575 24.3543 38.9583 24.2781 38.8779 24.1847C38.7974 24.0913 38.7373 23.9828 38.7014 23.8657C38.6654 23.7486 38.6543 23.6256 38.6688 23.5041V23.4014C38.6688 22.8367 38.6688 20.4902 38.6688 16.3622H38.6165C38.5371 16.5262 38.4128 16.6653 38.2576 16.7641C38.1023 16.863 37.9222 16.9175 37.7372 16.9219H37.6168C37.4077 16.9147 37.2065 16.8421 37.0426 16.7146C36.8787 16.587 36.7607 16.4114 36.706 16.2133C36.6982 16.1262 36.6982 16.0386 36.706 15.9514C36.706 15.6126 36.9573 15.2634 37.465 14.9246C37.8157 14.6165 38.0355 14.4111 38.1245 14.3649C38.6845 13.8155 39.1242 13.5383 39.4487 13.5383C39.4487 13.4613 39.4958 13.4561 39.6005 13.4561Z" fill="white"/>
</g>
<defs>
<clipPath id="clip0">
<rect width="79.95" height="74.75" fill="white" transform="translate(0.950195 0.450195)"/>
</clipPath>
</defs>
</svg>
