<svg width="66" height="59" viewBox="0 0 66 59" fill="none" xmlns="http://www.w3.org/2000/svg">
<path d="M43.79 49.5657L35.8354 40.0198C35.3444 39.432 34.6395 39.0626 33.8756 38.993C33.1118 38.9233 32.3514 39.159 31.7617 39.6483L29.0204 41.9218C28.6716 42.2098 28.2225 42.3481 27.7716 42.3061C27.3208 42.2641 26.905 42.0455 26.6157 41.6981L21.2632 35.2715L15.9108 28.8494C15.6227 28.5015 15.4841 28.0541 15.5253 27.6048C15.5665 27.1554 15.7841 26.7405 16.1307 26.4506L19.0873 23.9981C19.3514 23.7796 19.5697 23.5113 19.7298 23.2085C19.8899 22.9058 19.9886 22.5745 20.0203 22.2337C20.052 21.8929 20.016 21.5492 19.9144 21.2222C19.8128 20.8953 19.6476 20.5915 19.4283 20.3283L11.2942 10.5721C10.7616 9.93736 9.99875 9.53872 9.1724 9.46325C8.34604 9.38778 7.52332 9.64162 6.88399 10.1693V10.1693C4.26349 12.3559 2.61704 15.4881 2.30432 18.8817C1.9916 22.2754 3.03803 25.6545 5.215 28.281L15.2199 40.2838L25.2293 52.2777C27.4214 54.8917 30.5614 56.5341 33.9635 56.846C37.3656 57.158 40.7532 56.1141 43.3862 53.9426V53.9426C44.0159 53.4119 44.4112 52.6555 44.4868 51.8366C44.5623 51.0178 44.3121 50.2021 43.79 49.5657Z" stroke="white" stroke-width="3"/>
<path d="M45.7998 14.6494L63.9998 2.29941" stroke="white" stroke-width="3" stroke-linecap="round" stroke-linejoin="round"/>
<path d="M36.0983 22.0965L43.0191 11.3005L48.3194 18.2039C44.2431 19.498 40.1694 20.7955 36.0983 22.0965Z" stroke="white" stroke-width="3" stroke-linecap="round" stroke-linejoin="round"/>
</svg>
