<svg width="47" height="40" viewBox="0 0 47 40" fill="none" xmlns="http://www.w3.org/2000/svg">
<path d="M45.8245 13.6191C45.8194 15.1717 45.2204 16.659 44.1584 17.7562C43.0965 18.8534 41.6578 19.4713 40.1569 19.4748H36.3091" stroke="white" stroke-width="2" stroke-linecap="round" stroke-linejoin="round"/>
<path d="M26.7939 7.03145C26.7993 5.47891 27.4181 3.99157 28.5153 2.89438C29.6125 1.79718 31.0988 1.17932 32.6496 1.17578" stroke="white" stroke-width="2" stroke-linecap="round" stroke-linejoin="round"/>
<path d="M20.9382 7.03145C20.9329 5.47891 20.314 3.99157 19.2168 2.89438C18.1196 1.79718 16.6333 1.17932 15.0825 1.17578" stroke="white" stroke-width="2" stroke-linecap="round" stroke-linejoin="round"/>
<path d="M45.8245 37.0422C45.8194 35.4896 45.2204 34.0023 44.1584 32.9051C43.0965 31.8079 41.6578 31.1901 40.1569 31.1865H36.3091" stroke="white" stroke-width="2" stroke-linecap="round" stroke-linejoin="round"/>
<path d="M1.90723 37.0422C1.91237 35.4896 2.51095 34.0023 3.5722 32.9051C4.63344 31.8079 6.07108 31.1901 7.57104 31.1865H11.4227" stroke="white" stroke-width="2" stroke-linecap="round" stroke-linejoin="round"/>
<path d="M1.90723 13.6191C1.91237 15.1717 2.51095 16.659 3.5722 17.7562C4.63344 18.8534 6.07108 19.4713 7.57104 19.4748H11.4227" stroke="white" stroke-width="2" stroke-linecap="round" stroke-linejoin="round"/>
<path d="M11.4227 25.3301H1.90723" stroke="white" stroke-width="2" stroke-linecap="round" stroke-linejoin="round"/>
<path d="M45.8245 25.3301H36.3091" stroke="white" stroke-width="2" stroke-linecap="round" stroke-linejoin="round"/>
<path d="M28.2576 15.8152V13.6767C28.2576 12.4967 27.7949 11.365 26.9713 10.5307C26.1477 9.69629 25.0306 9.22754 23.8659 9.22754C22.7011 9.22754 21.5841 9.69629 20.7604 10.5307C19.9368 11.365 19.4741 12.4967 19.4741 13.6767V15.8152H28.2576Z" stroke="white" stroke-width="2" stroke-linecap="round" stroke-linejoin="round"/>
<path d="M16.4695 15.8154H31.2039C31.7815 15.8154 32.3353 16.0419 32.7437 16.4451C33.1521 16.8483 33.3815 17.3952 33.3815 17.9654V30.7817C33.3815 32.8303 32.5572 34.7951 31.09 36.2437C29.6228 37.6923 27.6329 38.5062 25.5579 38.5062H22.1742C20.0992 38.5062 18.1093 37.6923 16.6421 36.2437C15.1749 34.7951 14.3506 32.8303 14.3506 30.7817V17.9654C14.3504 17.4051 14.5717 16.8668 14.9675 16.4653C15.3633 16.0637 15.9022 15.8305 16.4695 15.8154Z" stroke="white" stroke-width="2" stroke-linecap="round" stroke-linejoin="round"/>
<path d="M23.8662 15.8154V38.5062" stroke="white" stroke-width="2" stroke-linecap="round" stroke-linejoin="round"/>
</svg>
