<svg width="51" height="33" viewBox="0 0 51 33" fill="none" xmlns="http://www.w3.org/2000/svg">
<path d="M47.5684 14.9053H41.7787C40.7882 14.9053 39.9854 15.7082 39.9854 16.6986V30.0861C39.9854 31.0765 40.7882 31.8794 41.7787 31.8794H47.5684C48.5589 31.8794 49.3617 31.0765 49.3617 30.0861V16.6986C49.3617 15.7082 48.5589 14.9053 47.5684 14.9053Z" stroke="white" stroke-width="2" stroke-linecap="round" stroke-linejoin="round"/>
<path fill-rule="evenodd" clip-rule="evenodd" d="M5.85156 10.638C5.85156 10.1999 6.20674 9.84473 6.64486 9.84473H41.691C42.1292 9.84473 42.4843 10.1999 42.4843 10.638V14.9053H44.4843V10.638C44.4843 9.09534 43.2337 7.84473 41.691 7.84473H6.64486C5.10216 7.84473 3.85156 9.09534 3.85156 10.638V20.6366C3.85156 22.1793 5.10217 23.4299 6.64486 23.4299H39.9854V21.4299H6.64486C6.20672 21.4299 5.85156 21.0747 5.85156 20.6366V10.638Z" fill="white"/>
<path fill-rule="evenodd" clip-rule="evenodd" d="M2.71143 3.2884C2.71143 2.85029 3.06659 2.49512 3.50472 2.49512H44.8311C45.2693 2.49512 45.6244 2.85029 45.6244 3.2884V14.9053H47.5684C47.5872 14.9053 47.6058 14.9056 47.6244 14.9061V3.2884C47.6244 1.7457 46.3738 0.495117 44.8311 0.495117H3.50472C1.96204 0.495117 0.711426 1.7457 0.711426 3.2884V24.6909C0.711426 26.2336 1.96202 27.4842 3.50472 27.4842H39.9854V25.4842H3.50472C3.0666 25.4842 2.71143 25.129 2.71143 24.6909V3.2884Z" fill="white"/>
<path d="M4.85156 5.4043H43.4843" stroke="white" stroke-width="2" stroke-linecap="round" stroke-linejoin="round"/>
<path d="M42.8989 16.457H46.4416" stroke="white" stroke-width="2" stroke-linecap="round" stroke-linejoin="round"/>
</svg>
