<svg width="44" height="49" viewBox="0 0 44 49" fill="none" xmlns="http://www.w3.org/2000/svg">
<path d="M34.1787 28.0244L29.5873 28.6163L28.2075 36.0794L34.7227 47.3659L34.8187 47.3099L36.6664 41.0787L42.6376 42.6785L34.1787 28.0244Z" stroke="white" stroke-width="2" stroke-linecap="round" stroke-linejoin="round"/>
<path d="M37.1742 27.6362L29.5872 28.6161L28.1954 36.1351L21.7562 32.0116L15.857 36.879L13.5773 29.5759L5.92631 29.512L8.87393 22.4529L3.05469 17.4895L9.8498 13.974L8.58596 6.43098L16.049 8.10676L19.9285 1.51562L24.5679 7.59483L31.7749 5.03916L31.423 12.6822L38.586 15.3578L33.4027 20.9811L37.1742 27.6362Z" stroke="white" stroke-width="2" stroke-linecap="round" stroke-linejoin="round"/>
<path d="M15.8571 36.879L13.5734 29.5759L9.50996 29.5439L1.83496 42.8542L1.93095 42.9062L8.25012 41.3944C8.78339 43.3835 9.31665 45.3739 9.84991 47.3656L15.9451 36.811L15.8571 36.879Z" stroke="white" stroke-width="2" stroke-linecap="round" stroke-linejoin="round"/>
<path d="M13.6934 19.7692C15.6264 21.697 17.5569 23.6274 19.4846 25.5605L27.9475 17.1016" stroke="white" stroke-width="2" stroke-linecap="round" stroke-linejoin="round"/>
</svg>
