<svg width="54" height="41" viewBox="0 0 54 41" fill="none" xmlns="http://www.w3.org/2000/svg">
<path d="M1.24756 39.5185V20.6079H16.5381V1.63965H35.8046V13.0592H52.6272V39.5185" stroke="white" stroke-width="2" stroke-linecap="round" stroke-linejoin="round"/>
<path d="M26.2894 4.73049H26.3334C26.4437 4.71689 26.5554 4.73881 26.6523 4.79306C26.7492 4.84732 26.8263 4.93108 26.8724 5.03216C26.9041 5.1314 26.9257 5.23362 26.9368 5.33723L26.9029 11.4622C26.8917 11.5532 26.8622 11.6409 26.8162 11.7202C26.7702 11.7994 26.7086 11.8685 26.6351 11.9232C26.5418 11.9859 26.4323 12.02 26.3199 12.0215H26.2419C26.1613 12.0174 26.0824 11.9969 26.01 11.961C25.9377 11.9252 25.8735 11.8749 25.8214 11.8133C25.7693 11.7516 25.7304 11.6799 25.7071 11.6027C25.6838 11.5254 25.6766 11.4441 25.686 11.364V11.2962C25.686 10.9233 25.686 9.37426 25.686 6.64901H25.6521C25.6007 6.75727 25.5202 6.84913 25.4197 6.91436C25.3192 6.97959 25.2025 7.01564 25.0827 7.01848H25.0047C24.8693 7.01377 24.739 6.9658 24.6329 6.88162C24.5267 6.79744 24.4503 6.68147 24.4149 6.55071C24.4099 6.4932 24.4099 6.43535 24.4149 6.37784C24.4149 6.15412 24.5776 5.92363 24.9064 5.69991C25.1335 5.49654 25.2759 5.36095 25.3335 5.33045C25.6962 4.96776 25.9809 4.78473 26.1911 4.78473C26.1911 4.73388 26.2216 4.73049 26.2894 4.73049Z" fill="white"/>
<path d="M42.0583 24.4858C41.9382 24.3177 41.8828 24.1118 41.9023 23.9061C41.948 23.2045 42.203 22.5327 42.6345 21.9775C43.1194 21.4404 43.668 20.9646 44.2683 20.5606C44.5519 20.4056 44.814 20.2142 45.0479 19.9911C45.1819 19.8045 45.2596 19.5834 45.2716 19.3539C45.2918 19.2197 45.2603 19.0828 45.1835 18.9709C45.0938 18.8304 44.9586 18.7251 44.8004 18.6726C44.5233 18.5869 44.2268 18.5869 43.9496 18.6726C43.6576 18.8091 43.395 19.0014 43.1768 19.2387C43.0391 19.3854 42.861 19.4881 42.665 19.5335C42.5734 19.5479 42.4798 19.5427 42.3904 19.5181C42.301 19.4936 42.2178 19.4503 42.1464 19.3912C42.0803 19.3469 42.0242 19.2894 41.9816 19.2223C41.939 19.1552 41.9109 19.08 41.8989 19.0014C41.8923 18.9239 41.9025 18.846 41.9288 18.7728C41.9552 18.6997 41.997 18.6331 42.0515 18.5777C42.3222 18.2298 42.6514 17.9315 43.0243 17.6964C43.5174 17.4728 44.0561 17.3683 44.5971 17.3913C45.0114 17.3637 45.4245 17.4605 45.7834 17.6693C46.0671 17.8484 46.3004 18.0969 46.4613 18.3912C46.6024 18.7002 46.6675 19.0384 46.6512 19.3776C46.6679 19.8243 46.514 20.2606 46.2207 20.5979C45.9369 20.9093 45.621 21.1899 45.2784 21.4351C44.7585 21.7543 44.2803 22.1369 43.8547 22.574C43.6186 22.8268 43.4272 23.118 43.2887 23.435H45.9834C46.167 23.4267 46.347 23.4871 46.4885 23.6045C46.5528 23.6619 46.603 23.7333 46.6354 23.8132C46.6677 23.8932 46.6812 23.9795 46.6749 24.0655C46.6775 24.1534 46.662 24.2408 46.6294 24.3225C46.5967 24.4041 46.5476 24.4782 46.4851 24.54C46.3469 24.6557 46.1702 24.7151 45.9902 24.7061H42.5599C42.4646 24.7136 42.3689 24.6974 42.2814 24.659C42.1939 24.6205 42.1172 24.561 42.0583 24.4858Z" fill="white"/>
<path d="M9.88078 28.6808C9.14185 28.6266 8.77916 28.4266 8.79611 28.0774C8.80185 27.9575 8.84988 27.8434 8.9317 27.7554C9.02465 27.6565 9.14132 27.583 9.27066 27.5419C9.60991 27.422 9.95632 27.3235 10.3079 27.247C10.5224 27.2164 10.7255 27.1312 10.8977 26.9995C10.9558 26.9462 10.9995 26.8792 11.025 26.8046C11.0505 26.73 11.0568 26.6501 11.0434 26.5724C11.0353 26.4814 11.0043 26.3939 10.9534 26.3181C10.9024 26.2422 10.8331 26.1805 10.7519 26.1386C10.524 26.0277 10.2762 25.9632 10.0231 25.9488C9.78454 25.9375 9.54814 25.999 9.34523 26.125C9.15858 26.2346 8.96623 26.3342 8.76899 26.4233C8.64867 26.4805 8.5154 26.5051 8.38258 26.4945C8.2465 26.4839 8.11832 26.4263 8.01989 26.3318C7.92804 26.2349 7.87289 26.1091 7.86397 25.9759C7.84831 25.8136 7.89163 25.6512 7.986 25.5183C8.09191 25.3738 8.23155 25.2574 8.39275 25.1793C8.91936 24.8785 9.5186 24.7284 10.1248 24.7454C10.9519 24.8019 11.5247 25.0562 11.8434 25.5081C12.0881 25.8206 12.2323 26.2 12.2569 26.5962C12.2644 26.9745 12.145 27.3443 11.9179 27.6469C11.7857 27.8237 11.6154 27.9685 11.4197 28.0707L11.5993 28.1825C12.2366 28.5655 12.4874 29.2502 12.3518 30.2163C12.3175 30.6669 12.1126 31.0876 11.779 31.3925C11.4957 31.6667 11.1555 31.8751 10.7824 32.0026C9.72486 32.1789 8.88876 32.0659 8.27411 31.6636C8.09313 31.5682 7.93865 31.4294 7.82448 31.2596C7.71031 31.0899 7.64002 30.8944 7.61992 30.6908C7.60823 30.5327 7.6553 30.3758 7.75211 30.2502C7.80282 30.1899 7.86541 30.1407 7.93598 30.1057C8.00655 30.0707 8.08358 30.0507 8.16225 30.0468C8.23344 30.0406 8.30514 30.0498 8.37241 30.0739C8.45323 30.1018 8.52637 30.1482 8.58595 30.2095C8.66053 30.2773 8.72493 30.3383 8.78933 30.3925C8.88096 30.4712 8.9681 30.5549 9.05033 30.6434C9.21981 30.8332 9.55877 30.8976 10.0672 30.8298C10.3823 30.8182 10.6859 30.708 10.935 30.5146C11.0245 30.4282 11.0916 30.3214 11.1306 30.2033C11.1696 30.0851 11.1792 29.9593 11.1587 29.8366C11.1604 29.6852 11.1237 29.5358 11.052 29.4024C10.9803 29.269 10.8758 29.156 10.7485 29.074C10.4783 28.9044 10.1864 28.7722 9.88078 28.6808Z" fill="white"/>
</svg>
