<svg width="48" height="36" viewBox="0 0 48 36" fill="none" xmlns="http://www.w3.org/2000/svg">
<path d="M42.8859 34.6536C44.9061 31.3047 46.0004 27.4792 46.0567 23.5686C46.113 19.6579 45.1294 15.8025 43.2065 12.3968C41.2835 8.99109 38.4903 6.15738 35.1127 4.18561C31.735 2.21385 27.8942 1.1748 23.9831 1.1748C20.0721 1.1748 16.2312 2.21385 12.8535 4.18561C9.47588 6.15738 6.68268 8.99109 4.75975 12.3968C2.83682 15.8025 1.8532 19.6579 1.90952 23.5686C1.96583 27.4792 3.06007 31.3047 5.08027 34.6536" stroke="white" stroke-width="2" stroke-linecap="round" stroke-linejoin="round"/>
<path d="M39.6802 31.4189L42.9154 34.6542" stroke="white" stroke-width="2" stroke-linecap="round" stroke-linejoin="round"/>
<path d="M41.4805 21.8232L46.0552 21.9477" stroke="white" stroke-width="2" stroke-linecap="round" stroke-linejoin="round"/>
<path d="M23.9795 5.75638V1.18164" stroke="white" stroke-width="2" stroke-linecap="round" stroke-linejoin="round"/>
<path d="M1.91064 21.8232L6.47807 21.9477" stroke="white" stroke-width="2" stroke-linecap="round" stroke-linejoin="round"/>
<path d="M8.43985 31.4189L5.21191 34.6542" stroke="white" stroke-width="2" stroke-linecap="round" stroke-linejoin="round"/>
<path d="M38.9556 6.99414L35.9106 10.4051" stroke="white" stroke-width="2" stroke-linecap="round" stroke-linejoin="round"/>
<path d="M9.12061 6.99414L12.1582 10.4051" stroke="white" stroke-width="2" stroke-linecap="round" stroke-linejoin="round"/>
<path d="M25.9337 22.9648L26.0874 22.6134C27.9309 18.4557 29.4006 14.142 30.4792 9.72363C29.1616 11.3339 22.3178 19.6929 21.7981 21.3179C21.7438 21.5031 21.7191 21.6958 21.7249 21.8888C21.6899 22.3972 21.8327 22.9019 22.129 23.3165C22.4253 23.7312 22.8566 24.0298 23.3489 24.1613C23.8412 24.2929 24.364 24.249 24.8275 24.0374C25.2911 23.8258 25.6666 23.4595 25.8898 23.0014V23.0014L25.9337 22.9648Z" stroke="white" stroke-width="2" stroke-linecap="round" stroke-linejoin="round"/>
</svg>
