<svg width="42" height="53" viewBox="0 0 42 53" fill="none" xmlns="http://www.w3.org/2000/svg">
<path d="M12.0885 20.5803C10.9928 19.2683 10.2732 17.6838 10.0062 15.9954C9.73922 14.3071 9.93486 12.5779 10.5723 10.9918C11.2097 9.40579 12.2651 8.02216 13.6263 6.98812C14.9874 5.95408 16.6033 5.30828 18.3022 5.11942C20.0011 4.93057 21.7194 5.20572 23.2744 5.9156C24.8294 6.62548 26.1629 7.74355 27.1331 9.15089C28.1033 10.5582 28.6739 12.2022 28.7842 13.908C28.8946 15.6138 28.5405 17.3176 27.7597 18.8382" stroke="white" stroke-width="2" stroke-linecap="round" stroke-linejoin="round"/>
<path d="M30.3652 22.9229C28.6071 25.2261 26.1735 26.9228 23.4043 27.7757" stroke="white" stroke-width="2" stroke-linecap="round" stroke-linejoin="round"/>
<path d="M22.563 1.05176C24.7294 1.57408 26.7386 2.60936 28.4214 4.07044C30.1041 5.53152 31.411 7.3756 32.2322 9.44733" stroke="white" stroke-width="2" stroke-linecap="round" stroke-linejoin="round"/>
<path d="M12.9669 26.8161C10.0526 25.3037 7.77081 22.8044 6.52921 19.7647C5.2876 16.7251 5.16702 13.343 6.18899 10.2227" stroke="white" stroke-width="2" stroke-linecap="round" stroke-linejoin="round"/>
<path d="M40.7592 35.4313V50.0046C40.7592 50.3928 40.605 50.7652 40.3305 51.0397C40.0559 51.3143 39.6836 51.4685 39.2953 51.4685H16.6851L16.4216 51.205L1.78244 36.5658C1.51858 36.2929 1.37109 35.928 1.37109 35.5484C1.37109 35.1687 1.51858 34.804 1.78244 34.531L5.78626 30.5198C6.05923 30.256 6.42403 30.1085 6.80368 30.1085C7.18333 30.1085 7.54813 30.256 7.8211 30.5198L13.9842 36.6756C14.1893 36.8638 14.4438 36.9896 14.7178 37.0383C14.9919 37.087 15.2742 37.0566 15.5315 36.9506C15.7889 36.8445 16.0107 36.6673 16.171 36.4397C16.3312 36.2121 16.4232 35.9436 16.4363 35.6655V11.6573C16.4363 11.269 16.5905 10.8967 16.865 10.6221C17.1396 10.3476 17.5119 10.1934 17.9002 10.1934H21.7576C22.1459 10.1934 22.5182 10.3476 22.7928 10.6221C23.0673 10.8967 23.2215 11.269 23.2215 11.6573V32.5547C23.2215 32.9429 23.3758 33.3153 23.6503 33.5898C23.9248 33.8644 24.2972 34.0186 24.6854 34.0186H39.4051C39.7654 34.0455 40.1029 34.2047 40.3529 34.4654C40.6029 34.7262 40.7476 35.0703 40.7592 35.4313V35.4313Z" stroke="white" stroke-width="2" stroke-miterlimit="10"/>
</svg>
