<svg width="53" height="47" viewBox="0 0 53 47" fill="none" xmlns="http://www.w3.org/2000/svg">
<path d="M25.402 45.0931C35.9125 45.0931 44.4329 36.5727 44.4329 26.0622C44.4329 15.5517 35.9125 7.03125 25.402 7.03125C14.8915 7.03125 6.37109 15.5517 6.37109 26.0622C6.37109 36.5727 14.8915 45.0931 25.402 45.0931Z" stroke="white" stroke-width="2" stroke-linecap="round" stroke-linejoin="round"/>
<path d="M1.24756 26.1259C1.24756 19.7027 3.79448 13.5426 8.32804 9.00073C12.8616 4.45884 19.0104 1.90723 25.4219 1.90723C31.8333 1.90723 37.9821 4.45884 42.5157 9.00073C47.0492 13.5426 49.5962 19.7027 49.5962 26.1259C49.5543 28.5649 49.1886 30.9874 48.5087 33.3297C48.0298 34.8706 47.3973 36.3592 46.6209 37.7732L51.7527 34.2356" stroke="white" stroke-width="2" stroke-linecap="round" stroke-linejoin="round"/>
<path d="M24.0102 26.8088C23.9828 26.7481 23.9609 26.6815 23.9335 26.6148C23.0165 24.3099 22.2833 21.9207 21.7422 19.4746C22.4051 20.3656 25.8344 24.9964 26.0919 25.8996C26.119 26.0019 26.132 26.1081 26.1303 26.2148C26.1513 26.4987 26.0813 26.7819 25.9325 27.0144C25.7837 27.247 25.5655 27.4141 25.3164 27.4864C25.0673 27.5588 24.8032 27.5317 24.5703 27.41C24.3374 27.2883 24.1508 27.0797 24.0431 26.8209L24.0102 26.8088Z" stroke="white" stroke-width="2" stroke-linecap="round" stroke-linejoin="round"/>
<path d="M27.4532 26.4996C27.5021 26.4051 27.5449 26.3105 27.5877 26.2159C29.1245 22.8596 30.3526 19.379 31.2576 15.8145C30.1505 17.1146 24.4378 23.8638 24.0035 25.1758C23.958 25.3233 23.9373 25.477 23.9423 25.6308C23.913 26.0413 24.0324 26.4489 24.28 26.7836C24.5276 27.1184 24.8879 27.3595 25.2993 27.4657C25.7108 27.5719 26.1476 27.5365 26.5349 27.3657C26.9223 27.1948 27.2361 26.8991 27.4226 26.5292L27.4532 26.4996Z" fill="white" stroke="white" stroke-width="2" stroke-linecap="round" stroke-linejoin="round"/>
<path d="M27.4532 26.4996C27.5021 26.4051 27.5449 26.3105 27.5877 26.2159C29.1245 22.8596 30.3526 19.379 31.2576 15.8145C30.1505 17.1146 24.4378 23.8638 24.0035 25.1758C23.958 25.3233 23.9373 25.477 23.9423 25.6308C23.913 26.0413 24.0324 26.4489 24.28 26.7836C24.5276 27.1184 24.8879 27.3595 25.2993 27.4657C25.7108 27.5719 26.1476 27.5365 26.5349 27.3657C26.9223 27.1948 27.2361 26.8991 27.4226 26.5292L27.4532 26.4996Z" fill="white" stroke="white" stroke-width="2" stroke-linecap="round" stroke-linejoin="round"/>
<path d="M25.4019 45.0929V40.7012" stroke="white" stroke-width="2" stroke-linecap="round" stroke-linejoin="round"/>
<path d="M25.4019 11.423V7.03125" stroke="white" stroke-width="2" stroke-linecap="round" stroke-linejoin="round"/>
<path d="M6.37109 26.0615H10.7628" stroke="white" stroke-width="2" stroke-linecap="round" stroke-linejoin="round"/>
<path d="M40.041 26.0615H44.4328" stroke="white" stroke-width="2" stroke-linecap="round" stroke-linejoin="round"/>
</svg>
