<svg width="220" height="53" viewBox="0 0 220 53" fill="none" xmlns="http://www.w3.org/2000/svg">
<path d="M126.995 52.9418C131.185 52.9418 134.619 50.9615 137.064 47.2923L137.529 52.1846H145.794V0H136.889V18.8703C134.677 15.4923 131.302 13.6868 127.402 13.6868C118.789 13.6868 112.736 20.967 112.736 33.6055C112.736 46.011 118.614 52.9418 126.995 52.9418ZM181.937 49.6802V42.4C179.143 44.2637 174.487 45.9528 170.122 45.9528C163.603 45.9528 161.101 42.8659 160.752 36.5758H182.286V31.8C182.286 18.6374 176.524 13.6868 167.561 13.6868C156.677 13.6868 151.498 22.0154 151.498 33.4308C151.498 46.5934 157.958 52.9418 169.365 52.9418C175.069 52.9418 179.259 51.4857 181.937 49.6802ZM85.7304 25.1022C87.4182 23.0637 89.9791 21.3747 93.2383 21.3747C96.3812 21.3747 97.778 22.7143 97.778 25.5681V52.2429H106.683V24.6363C106.683 17.1231 103.715 13.8033 96.3812 13.8033C91.0849 13.8033 87.8838 15.7835 86.0796 17.5308H85.614L85.3812 14.3857H76.651V52.1846H85.5558L85.7304 25.1022ZM69.4923 26.4418C69.4923 17.2978 64.8362 13.8033 55.3494 13.8033C49.4711 13.8033 44.7568 16.3077 42.0796 18.2297V25.9758C44.9314 23.6462 49.2965 20.967 54.3018 20.967C58.5505 20.967 60.5293 22.4813 60.5293 26.5582V28.9462H59.1325C45.4553 28.9462 39.4023 33.3725 39.4023 41.2934C39.4023 48.5736 44.0584 52.767 50.9844 52.767C56.2225 52.767 58.4923 51.0198 60.2383 49.2143H60.5875C60.6457 50.2044 60.9367 51.4275 61.2277 52.1846H69.9579C69.6669 49.0978 69.4923 46.011 69.4923 42.9242V26.4418ZM209.349 52.2429H219.418L207.08 32.7901L217.73 14.5022H208.826L202.365 25.9176L195.148 14.5022H185.021L196.429 32.6154L184.556 52.3011H193.635L201.201 39.5462L209.349 52.2429ZM129.672 20.7341C134.503 20.7341 136.889 24.578 136.889 33.256C136.889 42.0506 134.328 45.8945 129.323 45.8945C124.434 45.8945 122.048 42.167 122.048 33.5473C121.99 24.6363 124.55 20.7341 129.672 20.7341ZM167.445 20.7341C171.868 20.7341 173.207 24.4033 173.207 29.1209V29.878H160.752C160.926 23.8791 163.138 20.7341 167.445 20.7341ZM60.5875 43.2154C59.4817 44.9044 57.3283 46.1857 54.1854 46.1857C50.4605 46.1857 48.5399 44.0308 48.5399 40.711C48.5399 36.3429 51.6246 34.8286 59.2489 34.8286H60.5293V43.2154H60.5875Z" fill="black"/>
<path d="M26.1905 43.3319V52.1846H17.1111V37.2747L0 0H9.48677L22.8148 29.1209C25.3757 34.7121 26.1905 36.6341 26.1905 43.3319ZM43.2434 0L32.127 25.2187H22.873L34.0476 0H43.2434Z" fill="#FC3F1D"/>
</svg>
