<svg width="97" height="77" viewBox="0 0 97 77" fill="none" xmlns="http://www.w3.org/2000/svg">
<path d="M47.6171 22.395L39.3488 39.5274L32.7919 26.6898C32.215 25.7437 31.5131 24.8791 30.705 24.1193C30.2062 23.6395 29.6648 23.2056 29.0874 22.823C30.4574 21.4382 31.4833 19.7535 32.0831 17.9034C32.4905 16.6617 32.6948 15.3627 32.6881 14.0563C32.6264 9.54017 29.6801 5.44708 26.2868 3.37594C24.6011 2.38638 22.7381 1.73305 20.8018 1.45239C20.1226 1.35952 19.4375 1.31595 18.752 1.32203C12.5235 1.20887 6.29758 1.09982 0.0740861 0.994873C0.0477433 16.18 0.02305 31.3708 0 46.5673C7.37928 46.5394 14.7528 46.5149 22.1206 46.4935C22.3823 46.2328 22.6441 45.9622 22.896 45.7015C24.5334 44.0337 26.1708 42.3759 27.7983 40.7081C25.8793 40.6884 23.953 40.6614 22.0366 40.6343C18.6309 40.595 15.2278 40.5482 11.8222 40.5113C10.1477 40.4843 8.48321 40.4646 6.8088 40.4474C6.87465 35.9279 6.94051 31.4126 7.00636 26.9013C8.38936 26.9013 9.78224 26.9013 11.1776 26.8841C14.0769 26.8644 16.9763 26.8546 19.8855 26.8374H20.6042C21.0347 26.8535 21.4642 26.8913 21.8909 26.9505C25.3237 27.4425 27.1882 29.2677 27.1882 29.2677C27.7893 29.8698 28.2896 30.5641 28.67 31.324C29.9592 33.8502 32.8264 39.5545 36.5729 47.1798L42.4234 47.2708L54.3024 22.3925L47.6171 22.395ZM22.0736 20.6732H22.044C21.6069 20.6709 21.1699 20.6923 20.7351 20.7371V20.6535C19.52 20.6535 18.305 20.6805 17.0973 20.6904C14.5536 20.7166 12.0156 20.7388 9.4834 20.7568L6.93968 20.7839C6.89193 16.4514 6.84831 12.1131 6.8088 7.76912C7.62378 7.76912 8.43628 7.74207 9.25867 7.73223C12.4198 7.67565 15.5809 7.62892 18.752 7.5748C20.1437 7.47835 21.5333 7.79141 22.7478 8.47508C22.8911 8.55872 26.3214 10.5954 26.272 14.4893C26.2409 15.8124 25.8285 17.0987 25.0842 18.195C24.3399 19.2914 23.2949 20.1516 22.0736 20.6732Z" fill="url(#paint0_linear)"/>
<path d="M92.0706 24.5032L91.631 24.1859C90.6753 23.507 89.8776 23.0003 89.3392 22.6682C87.8421 21.7667 86.2607 21.0121 84.6172 20.4151C83.0687 19.9204 81.5783 19.2606 80.1719 18.4472C79.9002 18.2898 79.6483 18.1299 79.4063 17.9725C78.4125 17.6379 77.5574 16.986 76.9737 16.1178C76.6057 15.5765 76.351 14.9668 76.2246 14.3253C76.0982 13.6838 76.1028 13.0235 76.2381 12.3837C76.3734 11.744 76.6366 11.138 77.012 10.6017C77.3875 10.0654 77.8675 9.60996 78.4234 9.26241C78.6189 9.13513 78.8256 9.02563 79.0408 8.93525C79.1019 8.90706 79.1645 8.88242 79.2285 8.86146C80.0624 8.47651 80.9529 8.22737 81.8661 8.12353C85.1853 7.75948 87.7117 9.44689 88.6922 10.0914C89.9243 10.9123 90.9984 11.9471 91.8632 13.1464C92.5077 12.4085 93.1622 11.6927 93.8191 10.9572C94.5682 10.1077 95.319 9.25994 96.0714 8.41378C95.2222 7.3317 94.2602 6.34227 93.2017 5.46204C90.789 3.47854 87.9494 2.07618 84.9037 1.36404C84.7926 1.33698 84.679 1.30746 84.5777 1.29024C84.437 1.25335 84.2962 1.22383 84.1554 1.19677C83.3884 1.04612 82.6083 0.971145 81.8265 0.972932C78.5968 0.972932 75.4993 2.25082 73.2155 4.52549C70.9318 6.80016 69.6488 9.88526 69.6488 13.1021C69.6511 13.7978 69.7106 14.4922 69.8266 15.1782C70.6786 20.265 75.1412 23.1602 76.1958 23.8612C76.7169 24.2081 77.154 24.4565 77.4133 24.5992C78.4975 25.224 79.4137 25.6987 80.0978 26.0258C81.9772 26.9483 83.007 27.273 85.2322 28.3626C86.4942 28.9776 87.4944 29.5286 88.1217 29.8828C88.7208 30.1857 89.2509 30.6084 89.6787 31.1244C90.1066 31.6404 90.4231 32.2387 90.6085 32.8819C90.7939 33.5252 90.8442 34.1996 90.7562 34.8631C90.6683 35.5266 90.444 36.1649 90.0974 36.7382C89.8846 37.0894 89.6273 37.4118 89.3318 37.6975C89.3181 37.7149 89.3023 37.7306 89.2849 37.7443C88.4286 38.6725 87.3961 39.4225 86.247 39.9508C85.0979 40.4791 83.855 40.7752 82.5903 40.8221C81.3256 40.869 80.0641 40.6657 78.8787 40.224C77.6934 39.7822 76.6077 39.1108 75.6846 38.2485C74.5882 37.5494 73.5992 36.6961 72.7481 35.7149C72.4235 35.3322 72.121 34.9314 71.8418 34.5146C70.691 32.7706 70.2711 31.0856 69.4759 27.7969C68.982 25.7479 68.651 23.9129 68.4189 22.3657H61.6842L49.7385 47.1603V47.1874H56.4535V47.1603L63.8624 31.7793C64.3944 34.9678 65.773 37.9565 67.8553 40.4355C69.9377 42.9146 72.6479 44.7937 75.705 45.878C78.7621 46.9623 82.0548 47.2123 85.2416 46.6022C88.4284 45.9921 91.3934 44.5439 93.829 42.408L93.8562 42.381C94.9932 41.1242 95.8539 39.6447 96.3832 38.0372C96.9124 36.4297 97.0985 34.7298 96.9294 33.0465C96.7604 31.3632 96.2399 29.7336 95.4015 28.2624C94.5631 26.7912 93.4252 25.5107 92.0607 24.5032H92.0706Z" fill="url(#paint1_linear)"/>
<path d="M4.69971 71.5787C5.10226 73.3473 6.37907 74.1246 8.4264 74.1246C10.4737 74.1246 11.3406 73.3202 11.3406 72.0313C11.3406 70.5973 10.4885 69.9725 7.46323 69.2714C2.64744 68.1473 1.45707 66.4033 1.45707 64.0222C1.45707 60.9524 3.76372 58.8567 7.95223 58.8567C12.6445 58.8567 14.5215 61.3706 14.7758 63.9485H10.9207C10.7355 62.8637 10.1329 61.6854 7.85344 61.6854C6.30004 61.6854 5.36404 62.325 5.36404 63.577C5.36404 64.8291 6.10494 65.2989 8.97219 65.9606C14.1189 67.1658 15.2475 69.0746 15.2475 71.559C15.2475 74.7764 12.8026 76.9706 8.12509 76.9706C3.63529 76.9706 1.26938 74.7691 0.844604 71.559L4.69971 71.5787Z" fill="black" fill-opacity="0.7"/>
<path d="M21.7847 62.2438H16.4207V59.1223H30.9915V62.2438H25.6126V76.7442H21.7847V62.2438Z" fill="black" fill-opacity="0.7"/>
<path d="M37.4718 59.1223V69.6207C37.4718 73.0029 39.2179 74.004 41.1244 74.004C43.315 74.004 44.6881 72.8209 44.6881 69.6207V59.1223H48.5259V69.4313C48.5259 75.4578 44.9845 76.9927 41.0824 76.9927C37.089 76.9927 33.6464 75.3913 33.6464 69.5051V59.1223H37.4718Z" fill="black" fill-opacity="0.7"/>
<path d="M52.5588 59.1223H59.5751C64.7267 59.1223 68.0953 62.5021 68.0953 67.7119C68.0953 72.8504 64.828 76.7442 59.4121 76.7442H52.5588V59.1223ZM56.3843 73.6621H59.254C62.6448 73.6621 64.1439 71.1507 64.1439 67.7193C64.1439 64.8389 62.7412 62.197 59.2763 62.197H56.3843V73.6621Z" fill="black" fill-opacity="0.7"/>
<path d="M75.2721 59.1223V76.7442H71.4467V59.1223H75.2721Z" fill="black" fill-opacity="0.7"/>
<path d="M95.7652 67.8717C95.7652 72.7766 92.8016 77 87.0621 77C81.5079 77 78.6036 72.9807 78.6036 67.9332C78.6036 62.8046 81.8142 58.8665 87.3091 58.8665C92.4855 58.8665 95.7652 62.4774 95.7652 67.8717ZM82.5551 67.857C82.5551 71.3007 84.0689 73.8982 87.2054 73.8982C90.6085 73.8982 91.8137 71.0596 91.8137 67.9209C91.8137 64.5854 90.4431 61.9658 87.1436 61.9658C83.9479 61.9658 82.5551 64.4256 82.5551 67.857Z" fill="black" fill-opacity="0.7"/>
<defs>
<linearGradient id="paint0_linear" x1="-12.4272" y1="12.5436" x2="54.4145" y2="45.2182" gradientUnits="userSpaceOnUse">
<stop offset="0.598958" stop-color="#4AECFF"/>
<stop offset="1" stop-color="#38ABFF"/>
</linearGradient>
<linearGradient id="paint1_linear" x1="38.9249" y1="12.5063" x2="99.9205" y2="38.4859" gradientUnits="userSpaceOnUse">
<stop offset="0.598958" stop-color="#4AECFF"/>
<stop offset="1" stop-color="#38ABFF"/>
</linearGradient>
</defs>
</svg>
