<svg width="119" height="93" viewBox="0 0 119 93" fill="none" xmlns="http://www.w3.org/2000/svg">
<g clip-path="url(#clip0)">
<path d="M58.4169 26.1802L48.2732 47.1448L40.2292 31.4356C39.5215 30.2779 38.6605 29.22 37.669 28.2902C37.0571 27.703 36.3929 27.1721 35.6845 26.7039C37.3653 25.0094 38.6239 22.9478 39.3596 20.6839C39.8595 19.1644 40.1101 17.5749 40.1019 15.9763C40.0262 10.4499 36.4117 5.44126 32.2488 2.90684C30.1807 1.69593 27.8952 0.896463 25.5197 0.553024C24.6865 0.43938 23.846 0.386064 23.005 0.393495C15.3639 0.255035 7.72589 0.121591 0.0908892 -0.00683594C0.0585717 18.5749 0.0282778 37.1637 0 55.7594C9.05293 55.7253 18.0988 55.6952 27.1376 55.6692C27.4587 55.3501 27.7799 55.019 28.0889 54.6999C30.0977 52.6591 32.1064 50.6304 34.103 48.5896C31.7489 48.5656 29.3857 48.5324 27.0346 48.4993C22.8565 48.4512 18.6815 48.394 14.5035 48.3488C12.4493 48.3157 10.4072 48.2916 8.35306 48.2706C8.43385 42.7402 8.51464 37.2148 8.59544 31.6945C10.2921 31.6945 12.0009 31.6945 13.7127 31.6734C17.2697 31.6493 20.8266 31.6373 24.3957 31.6162H25.2773C25.8055 31.636 26.3323 31.6822 26.8558 31.7547C31.0672 32.3567 33.3547 34.5901 33.3547 34.5901C34.0921 35.327 34.7058 36.1766 35.1725 37.1065C36.754 40.1978 40.2716 47.1779 44.8678 56.5089L52.0453 56.6203L66.6184 26.1772L58.4169 26.1802ZM27.08 24.0732H27.0437C26.5074 24.0704 25.9713 24.0966 25.4379 24.1514V24.0491C23.9472 24.0491 22.4566 24.0822 20.975 24.0942C17.8544 24.1264 14.7408 24.1534 11.6343 24.1755L8.51363 24.2086C8.45505 18.907 8.40154 13.5984 8.35306 8.28271C9.35288 8.28271 10.3497 8.2496 11.3586 8.23756C15.2367 8.16833 19.1148 8.11114 23.005 8.04492C24.7124 7.92689 26.4171 8.30998 27.9071 9.14658C28.0829 9.24892 32.2912 11.7412 32.2306 16.506C32.1924 18.1251 31.6866 19.6992 30.7734 21.0407C29.8603 22.3823 28.5783 23.4349 27.08 24.0732Z" fill="url(#paint0_linear)"/>
<path d="M112.953 28.7605L112.413 28.3722C111.241 27.5414 110.262 26.9214 109.602 26.515C107.765 25.4119 105.825 24.4885 103.809 23.7579C101.909 23.1525 100.081 22.3452 98.3553 21.3499C98.022 21.1572 97.713 20.9616 97.4161 20.769C96.1969 20.3595 95.1479 19.5617 94.4318 18.4994C93.9803 17.8369 93.6678 17.091 93.5128 16.3059C93.3577 15.5209 93.3633 14.7129 93.5293 13.9301C93.6953 13.1472 94.0182 12.4056 94.4788 11.7494C94.9394 11.0932 95.5282 10.5358 96.2103 10.1105C96.4501 9.95478 96.7036 9.82079 96.9677 9.7102C97.0426 9.6757 97.1195 9.64556 97.1979 9.61991C98.2209 9.14885 99.3135 8.84398 100.434 8.7169C104.506 8.27143 107.605 10.3363 108.808 11.1249C110.32 12.1295 111.637 13.3958 112.698 14.8633C113.489 13.9603 114.292 13.0844 115.098 12.1844C116.017 11.145 116.938 10.1075 117.861 9.07208C116.819 7.74797 115.639 6.53721 114.34 5.46008C111.38 3.03291 107.897 1.31686 104.16 0.445424C104.024 0.412314 103.885 0.376193 103.76 0.355123C103.588 0.309973 103.415 0.273852 103.242 0.240742C102.301 0.0563929 101.344 -0.0353506 100.385 -0.033165C96.423 -0.033165 92.623 1.53057 89.8212 4.31404C87.0195 7.09752 85.4455 10.8727 85.4455 14.8091C85.4484 15.6605 85.5213 16.5101 85.6636 17.3496C86.7089 23.5743 92.1837 27.117 93.4774 27.9749C94.1167 28.3993 94.6529 28.7033 94.9711 28.8779C96.3011 29.6424 97.4252 30.2234 98.2644 30.6237C100.57 31.7524 101.833 32.1498 104.563 33.4832C106.112 34.2357 107.339 34.9099 108.108 35.3434C108.843 35.714 109.493 36.2312 110.018 36.8627C110.543 37.4941 110.932 38.2262 111.159 39.0134C111.386 39.8005 111.448 40.6258 111.34 41.4377C111.232 42.2496 110.957 43.0307 110.532 43.7323C110.271 44.162 109.955 44.5565 109.593 44.9061C109.576 44.9274 109.557 44.9466 109.535 44.9633C108.485 46.0992 107.218 47.0169 105.808 47.6634C104.399 48.3099 102.874 48.6723 101.322 48.7297C99.7707 48.7871 98.2231 48.5383 96.7689 47.9977C95.3147 47.4571 93.9828 46.6355 92.8502 45.5804C91.5052 44.7249 90.2919 43.6807 89.2478 42.4801C88.8496 42.0117 88.4784 41.5213 88.1359 41.0112C86.7241 38.8771 86.209 36.8153 85.2334 32.7909C84.6275 30.2836 84.2215 28.0381 83.9367 26.1448H75.6745L61.0195 56.4856V56.5187H69.2575V56.4856L78.3467 37.6641C78.9994 41.5658 80.6907 45.223 83.2453 48.2566C85.7999 51.2901 89.1249 53.5896 92.8753 54.9164C96.6258 56.2433 100.665 56.5493 104.575 55.8027C108.484 55.056 112.122 53.284 115.11 50.6703L115.143 50.6372C116.538 49.0993 117.594 47.2888 118.243 45.3218C118.893 43.3547 119.121 41.2746 118.914 39.2147C118.706 37.1549 118.068 35.1609 117.039 33.3605C116.01 31.5602 114.614 29.9934 112.941 28.7605H112.953Z" fill="url(#paint1_linear)"/>
<path d="M5.76559 86.3661C6.25944 88.5303 7.82583 89.4814 10.3375 89.4814C12.8492 89.4814 13.9126 88.4972 13.9126 86.9199C13.9126 85.1651 12.8673 84.4005 9.15589 83.5427C3.24786 82.1671 1.78751 80.033 1.78751 77.1193C1.78751 73.3629 4.61732 70.7983 9.7558 70.7983C15.5123 70.7983 17.815 73.8746 18.127 77.029H13.3976C13.1703 75.7016 12.4311 74.2598 9.6346 74.2598C7.72888 74.2598 6.58059 75.0424 6.58059 76.5745C6.58059 78.1066 7.48954 78.6815 11.0071 79.4912C17.3211 80.9661 18.7057 83.3019 18.7057 86.342C18.7057 90.2791 15.7062 92.964 9.96786 92.964C4.45976 92.964 1.55725 90.2701 1.03613 86.342L5.76559 86.3661Z" fill="black" fill-opacity="0.7"/>
<path d="M26.7255 74.9427H20.1449V71.123H38.0205V74.9427H31.4217V92.6867H26.7255V74.9427Z" fill="black" fill-opacity="0.7"/>
<path d="M45.9706 71.123V83.9697C45.9706 88.1085 48.1126 89.3336 50.4516 89.3336C53.139 89.3336 54.8236 87.8858 54.8236 83.9697V71.123H59.5318V83.738C59.5318 91.1125 55.1871 92.9907 50.4001 92.9907C45.501 92.9907 41.2775 91.0312 41.2775 83.8283V71.123H45.9706Z" fill="black" fill-opacity="0.7"/>
<path d="M64.4794 71.123H73.0869C79.407 71.123 83.5396 75.2588 83.5396 81.634C83.5396 87.9219 79.5312 92.6867 72.887 92.6867H64.4794V71.123ZM69.1725 88.9152H72.6931C76.8529 88.9152 78.692 85.842 78.692 81.643C78.692 78.1183 76.9711 74.8855 72.7203 74.8855H69.1725V88.9152Z" fill="black" fill-opacity="0.7"/>
<path d="M92.3441 71.123V92.6867H87.651V71.123H92.3441Z" fill="black" fill-opacity="0.7"/>
<path d="M117.485 81.8297C117.485 87.8316 113.849 92.9998 106.808 92.9998C99.9943 92.9998 96.4313 88.0815 96.4313 81.9049C96.4313 75.6291 100.37 70.8101 107.111 70.8101C113.462 70.8101 117.485 75.2287 117.485 81.8297ZM101.279 81.8116C101.279 86.0256 103.136 89.2042 106.984 89.2042C111.159 89.2042 112.637 85.7306 112.637 81.8899C112.637 77.8083 110.956 74.6027 106.908 74.6027C102.988 74.6027 101.279 77.6127 101.279 81.8116Z" fill="black" fill-opacity="0.7"/>
</g>
<defs>
<linearGradient id="paint0_linear" x1="-15.2458" y1="14.1251" x2="66.6752" y2="54.2731" gradientUnits="userSpaceOnUse">
<stop offset="0.598958" stop-color="#4AECFF"/>
<stop offset="1" stop-color="#38ABFF"/>
</linearGradient>
<linearGradient id="paint1_linear" x1="47.7534" y1="14.08" x2="122.524" y2="46.0082" gradientUnits="userSpaceOnUse">
<stop offset="0.598958" stop-color="#4AECFF"/>
<stop offset="1" stop-color="#38ABFF"/>
</linearGradient>
<clipPath id="clip0">
<rect width="119" height="93" fill="white"/>
</clipPath>
</defs>
</svg>
